<?xml version="1.0" encoding="UTF-8" standalone="no"?>
<!-- Created with Inkscape (http://www.inkscape.org/) -->

<svg
   width="52"
   height="52"
   viewBox="0 0 13.758333 13.758332"
   version="1.1"
   id="svg5537"
   inkscape:version="1.2.2 (b0a8486541, 2022-12-01)"
   sodipodi:docname="img_logo_small2.svg"
   inkscape:export-filename="treeved-logo.png"
   inkscape:export-xdpi="254"
   inkscape:export-ydpi="254"
   xmlns:inkscape="http://www.inkscape.org/namespaces/inkscape"
   xmlns:sodipodi="http://sodipodi.sourceforge.net/DTD/sodipodi-0.dtd"
   xmlns="http://www.w3.org/2000/svg"
   xmlns:svg="http://www.w3.org/2000/svg">
  <sodipodi:namedview
     id="namedview5539"
     pagecolor="#ffffff"
     bordercolor="#666666"
     borderopacity="1.0"
     inkscape:pageshadow="2"
     inkscape:pageopacity="0"
     inkscape:pagecheckerboard="0"
     inkscape:document-units="mm"
     showgrid="false"
     showborder="false"
     fit-margin-top="0"
     fit-margin-left="0"
     fit-margin-right="0"
     fit-margin-bottom="0"
     inkscape:zoom="2.8284274"
     inkscape:cx="153.79571"
     inkscape:cy="73.715875"
     inkscape:window-width="1850"
     inkscape:window-height="1016"
     inkscape:window-x="70"
     inkscape:window-y="27"
     inkscape:window-maximized="1"
     inkscape:current-layer="g1350"
     inkscape:showpageshadow="2"
     inkscape:deskcolor="#d1d1d1" />
  <defs
     id="defs5534">
    <inkscape:path-effect
       effect="mirror_symmetry"
       start_point="558.38364,515.02428"
       end_point="558.38364,798.20928"
       center_point="558.38364,656.61678"
       id="path-effect1354"
       is_visible="true"
       lpeversion="1.1"
       mode="free"
       discard_orig_path="false"
       fuse_paths="false"
       oposite_fuse="false"
       split_items="false"
       split_open="false"
       lpesatellites=""
       link_styles="false" />
    <inkscape:path-effect
       effect="mirror_symmetry"
       start_point="558.38364,515.02428"
       end_point="558.38364,798.20928"
       center_point="558.38364,656.61678"
       id="path-effect1026"
       is_visible="true"
       lpeversion="1.1"
       mode="free"
       discard_orig_path="false"
       fuse_paths="false"
       oposite_fuse="false"
       split_items="false"
       split_open="false"
       lpesatellites=""
       link_styles="false" />
    <inkscape:path-effect
       effect="mirror_symmetry"
       start_point="558.38364,515.02428"
       end_point="558.38364,798.20928"
       center_point="558.38364,656.61678"
       id="path-effect2306"
       is_visible="true"
       lpeversion="1.1"
       mode="free"
       discard_orig_path="false"
       fuse_paths="false"
       oposite_fuse="false"
       split_items="false"
       split_open="false"
       lpesatellites=""
       link_styles="false" />
    <inkscape:path-effect
       effect="mirror_symmetry"
       start_point="558.38364,515.02428"
       end_point="558.38364,798.20928"
       center_point="558.38364,656.61678"
       id="path-effect6067-2-1-3"
       is_visible="true"
       lpeversion="1.1"
       mode="free"
       discard_orig_path="false"
       fuse_paths="false"
       oposite_fuse="false"
       split_items="false"
       split_open="false"
       lpesatellites=""
       link_styles="false" />
    <inkscape:path-effect
       effect="mirror_symmetry"
       start_point="558.38364,515.02428"
       end_point="558.38364,798.20928"
       center_point="558.38364,656.61678"
       id="path-effect6067-2-1-3-7"
       is_visible="true"
       lpeversion="1.1"
       mode="free"
       discard_orig_path="false"
       fuse_paths="false"
       oposite_fuse="false"
       split_items="false"
       split_open="false"
       lpesatellites=""
       link_styles="false" />
    <inkscape:path-effect
       effect="mirror_symmetry"
       start_point="558.38364,515.02428"
       end_point="558.38364,798.20928"
       center_point="558.38364,656.61678"
       id="path-effect6067-2-1-3-75"
       is_visible="true"
       lpeversion="1.1"
       mode="free"
       discard_orig_path="false"
       fuse_paths="false"
       oposite_fuse="false"
       split_items="false"
       split_open="false"
       lpesatellites=""
       link_styles="false" />
    <inkscape:path-effect
       effect="mirror_symmetry"
       start_point="558.38364,515.02428"
       end_point="558.38364,798.20928"
       center_point="558.38364,656.61678"
       id="path-effect6067-2-1-3-75-9"
       is_visible="true"
       lpeversion="1.1"
       mode="free"
       discard_orig_path="false"
       fuse_paths="false"
       oposite_fuse="false"
       split_items="false"
       split_open="false"
       lpesatellites=""
       link_styles="false" />
    <inkscape:path-effect
       effect="mirror_symmetry"
       start_point="558.38364,515.02428"
       end_point="558.38364,798.20928"
       center_point="558.38364,656.61678"
       id="path-effect6067-2-1-3-4"
       is_visible="true"
       lpeversion="1.1"
       mode="free"
       discard_orig_path="false"
       fuse_paths="false"
       oposite_fuse="false"
       split_items="false"
       split_open="false"
       lpesatellites=""
       link_styles="false" />
    <inkscape:path-effect
       effect="mirror_symmetry"
       start_point="558.38364,515.02428"
       end_point="558.38364,798.20928"
       center_point="558.38364,656.61678"
       id="path-effect6067-2-1-3-75-9-0"
       is_visible="true"
       lpeversion="1.1"
       mode="free"
       discard_orig_path="false"
       fuse_paths="false"
       oposite_fuse="false"
       split_items="false"
       split_open="false"
       lpesatellites=""
       link_styles="false" />
    <inkscape:path-effect
       effect="mirror_symmetry"
       start_point="558.38364,515.02428"
       end_point="558.38364,798.20928"
       center_point="558.38364,656.61678"
       id="path-effect2306-3"
       is_visible="true"
       lpeversion="1.1"
       mode="free"
       discard_orig_path="false"
       fuse_paths="false"
       oposite_fuse="false"
       split_items="false"
       split_open="false"
       lpesatellites=""
       link_styles="false" />
    <inkscape:path-effect
       effect="mirror_symmetry"
       start_point="558.38364,515.02428"
       end_point="558.38364,798.20928"
       center_point="558.38364,656.61678"
       id="path-effect1354-3"
       is_visible="true"
       lpeversion="1.1"
       mode="free"
       discard_orig_path="false"
       fuse_paths="false"
       oposite_fuse="false"
       split_items="false"
       split_open="false"
       lpesatellites=""
       link_styles="false" />
    <inkscape:path-effect
       effect="mirror_symmetry"
       start_point="558.38364,515.02428"
       end_point="558.38364,798.20928"
       center_point="558.38364,656.61678"
       id="path-effect1354-36"
       is_visible="true"
       lpeversion="1.1"
       mode="free"
       discard_orig_path="false"
       fuse_paths="false"
       oposite_fuse="false"
       split_items="false"
       split_open="false"
       lpesatellites=""
       link_styles="false" />
  </defs>
  <g
     inkscape:groupmode="layer"
     id="g1350"
     inkscape:label="Layer 3"
     transform="translate(199.99995,-39.588588)">
    <g
       id="g1344"
       transform="matrix(0.74083329,0,0,0.74083329,-391.01025,-34.791875)"
       style="stroke-width:1.79976">
      <path
         d="m 558.38364,658.18928 v 0 c -4.083,-0.263 -6.747,3.177 -9.864,5.825 v 0 c -17.022,14.458 -42.886,9.201 -64.135,16.075 v 0 c -1.642,0.531 -3.48,1.376 -5.381,2.397 v 0 c -10.731,5.763 -19.448,14.666 -25.232,25.385 v 0 c -2.943,5.453 -6.029,11.608 -7.798,16.415 v 0 c 10.066,-3.478 32.462,-15.953 34.93,-18.811 6.56864,-5.81944 8.6783,-11.12424 15.444,-12.398 v 0 c 3.574,-0.571 7.277,1.068 8.815,4.344 v 0 c 1.652,3.516 -0.205,6.879 -2.131,9.761 v 0 c -0.54,0.807 -1.174,1.673 -1.874,2.574 v 0 c -8.41,10.819 -20.09,18.632 -33.205,22.603 v 0 l -46.912,14.202 c 8.27545,-40.66276 28.71266,-79.49044 71.025,-88.209 v 0 c 14.518,-2.277 28.591,-2.25 42.586,-8.307 v 0 c 1.757,-0.761 3.415,-1.775 4.728,-3.169 v 0 c 5.829,-6.181 1.38,-13.855 -1.911,-20.361 v 0 c -8.54,-16.884 -9.571,-37.398 -2.77,-55.053 v 0 c 4.683,-12.153 12.489,-27.63 -7.339,-34.047 v 0 c -1.861,-0.602 -3.823,-0.764 -5.779,-0.739 v 0 c -7.971,0.103 -20.51,-7.179 -15.716,-16.21 v 0 c 2.069,-3.895 6.499,-5.953 10.866,-5.333 v 0 c 9.163,1.303 18.046,4.483 25.969,9.259 v 0 c 4.95,2.984 9.906,6.714 15.684,6.872 v 0 z m 0,-32.743 v -61.899 0 c -6.715,23.314 -18.868,42.693 0,61.899 m 0,32.743 v 0 c 4.083,-0.263 6.747,3.177 9.864,5.825 v 0 c 17.022,14.458 42.886,9.201 64.135,16.075 v 0 c 1.642,0.531 3.48,1.376 5.381,2.397 v 0 c 10.731,5.763 19.448,14.666 25.232,25.385 v 0 c 2.943,5.453 6.029,11.608 7.798,16.415 v 0 c -10.066,-3.478 -32.462,-15.953 -34.93,-18.811 -6.56864,-5.81944 -8.6783,-11.12424 -15.444,-12.398 v 0 c -3.574,-0.571 -7.277,1.068 -8.815,4.344 v 0 c -1.652,3.516 0.205,6.879 2.131,9.761 v 0 c 0.54,0.807 1.174,1.673 1.874,2.574 v 0 c 8.41,10.819 20.09,18.632 33.205,22.603 v 0 l 46.912,14.202 c -8.27545,-40.66276 -28.71266,-79.49044 -71.025,-88.209 v 0 c -14.518,-2.277 -28.591,-2.25 -42.586,-8.307 v 0 c -1.757,-0.761 -3.415,-1.775 -4.728,-3.169 v 0 c -5.829,-6.181 -1.38,-13.855 1.911,-20.361 v 0 c 8.54,-16.884 9.571,-37.398 2.77,-55.053 v 0 c -4.683,-12.153 -12.489,-27.63 7.339,-34.047 v 0 c 1.861,-0.602 3.823,-0.764 5.779,-0.739 v 0 c 7.971,0.103 20.51,-7.179 15.716,-16.21 v 0 c -2.069,-3.895 -6.499,-5.953 -10.866,-5.333 v 0 c -9.163,1.303 -18.046,4.483 -25.969,9.259 v 0 c -4.95,2.984 -9.906,6.714 -15.684,6.872 v 0 z m 0,-32.743 v -61.899 0 c 6.715,23.314 18.868,42.693 0,61.899"
         id="path1342"
         style="fill:#008fe4;fill-opacity:1;stroke-width:1.85732"
         sodipodi:nodetypes="csssssssssssccsssssssscccssssssssssssssssssssccccsc"
         inkscape:path-effect="#path-effect1354"
         inkscape:original-d="m 558.38364,658.18928 v 0 c -4.083,-0.263 -6.747,3.177 -9.864,5.825 v 0 c -17.022,14.458 -42.886,9.201 -64.135,16.075 v 0 c -1.642,0.531 -3.48,1.376 -5.381,2.397 v 0 c -10.731,5.763 -19.448,14.666 -25.232,25.385 v 0 c -2.943,5.453 -6.029,11.608 -7.798,16.415 v 0 c 10.066,-3.478 32.462,-15.953 34.93,-18.811 6.56864,-5.81944 8.6783,-11.12424 15.444,-12.398 v 0 c 3.574,-0.571 7.277,1.068 8.815,4.344 v 0 c 1.652,3.516 -0.205,6.879 -2.131,9.761 v 0 c -0.54,0.807 -1.174,1.673 -1.874,2.574 v 0 c -8.41,10.819 -20.09,18.632 -33.205,22.603 v 0 l -46.912,14.202 c 8.27545,-40.66276 28.71266,-79.49044 71.025,-88.209 v 0 c 14.518,-2.277 28.591,-2.25 42.586,-8.307 v 0 c 1.757,-0.761 3.415,-1.775 4.728,-3.169 v 0 c 5.829,-6.181 1.38,-13.855 -1.911,-20.361 v 0 c -8.54,-16.884 -9.571,-37.398 -2.77,-55.053 v 0 c 4.683,-12.153 12.489,-27.63 -7.339,-34.047 v 0 c -1.861,-0.602 -3.823,-0.764 -5.779,-0.739 v 0 c -7.971,0.103 -20.51,-7.179 -15.716,-16.21 v 0 c 2.069,-3.895 6.499,-5.953 10.866,-5.333 v 0 c 9.163,1.303 18.046,4.483 25.969,9.259 v 0 c 4.95,2.984 9.906,6.714 15.684,6.872 v 0 z m 0,-32.743 v -61.899 0 c -6.715,23.314 -18.868,42.693 0,61.899"
         class="UnoptimicedTransforms"
         transform="matrix(0.05460781,0,0,-0.05460781,236.62529,145.62073)" />
      <path
         id="path1346-5"
         style="fill:#008fe4;fill-opacity:1;stroke:none;stroke-width:0.159428;stroke-linecap:butt;stroke-linejoin:miter;stroke-dasharray:none;stroke-opacity:1"
         d="m -159.24215,0.08859124 -2.54667,4.41424216 2.54656,4.4085451 2.54668,-4.4142421 z m -4.2e-4,2.45077426 a 2.2721571,2.2721571 0 0 1 0.0219,0.012765 2.2721571,2.2721571 0 0 1 0.0498,0.030701 2.2721571,2.2721571 0 0 1 0.0489,0.032072 2.2721571,2.2721571 0 0 1 0.0481,0.033233 2.2721571,2.2721571 0 0 1 0.0472,0.034604 2.2721571,2.2721571 0 0 1 0.0463,0.035765 2.2721571,2.2721571 0 0 1 0.0456,0.03682 2.2721571,2.2721571 0 0 1 0.0443,0.038086 2.2721571,2.2721571 0 0 1 0.0435,0.039141 2.2721571,2.2721571 0 0 1 0.0425,0.040407 2.2721571,2.2721571 0 0 1 0.0412,0.041251 2.2721571,2.2721571 0 0 1 0.0403,0.042411 2.2721571,2.2721571 0 0 1 0.0393,0.043466 2.2721571,2.2721571 0 0 1 0.0381,0.044521 2.2721571,2.2721571 0 0 1 0.0369,0.045365 2.2721571,2.2721571 0 0 1 0.0357,0.046315 2.2721571,2.2721571 0 0 1 0.0345,0.047264 2.2721571,2.2721571 0 0 1 0.0333,0.048108 2.2721571,2.2721571 0 0 1 0.0321,0.048952 2.2721571,2.2721571 0 0 1 0.0307,0.049796 2.2721571,2.2721571 0 0 1 0.0294,0.050535 2.2721571,2.2721571 0 0 1 0.0283,0.051273 2.2721571,2.2721571 0 0 1 0.0269,0.052012 2.2721571,2.2721571 0 0 1 0.0254,0.052645 2.2721571,2.2721571 0 0 1 0.0243,0.053383 2.2721571,2.2721571 0 0 1 0.0227,0.053911 2.2721571,2.2721571 0 0 1 0.0213,0.054438 2.2721571,2.2721571 0 0 1 0.0198,0.054966 2.2721571,2.2721571 0 0 1 0.0187,0.055493 2.2721571,2.2721571 0 0 1 0.017,0.056021 2.2721571,2.2721571 0 0 1 0.0157,0.056337 2.2721571,2.2721571 0 0 1 0.014,0.056759 2.2721571,2.2721571 0 0 1 0.0128,0.057076 2.2721571,2.2721571 0 0 1 0.0113,0.057392 2.2721571,2.2721571 0 0 1 0.01,0.057709 2.2721571,2.2721571 0 0 1 0.008,0.058025 2.2721571,2.2721571 0 0 1 0.007,0.058131 2.2721571,2.2721571 0 0 1 0.005,0.058236 2.2721571,2.2721571 0 0 1 0.004,0.058342 2.2721571,2.2721571 0 0 1 0.003,0.058447 2.2721571,2.2721571 0 0 1 7.4e-4,0.058553 2.2721571,2.2721571 0 0 1 -0.007,0.1697501 2.2721571,2.2721571 0 0 1 -0.019,0.1689062 2.2721571,2.2721571 0 0 1 -0.0318,0.1669016 2.2721571,2.2721571 0 0 1 -0.044,0.1641586 2.2721571,2.2721571 0 0 1 -0.056,0.1603606 2.2721571,2.2721571 0 0 1 -0.0679,0.1558241 2.2721571,2.2721571 0 0 1 -0.0795,0.1502326 2.2721571,2.2721571 0 0 1 -0.0904,0.143797 2.2721571,2.2721571 0 0 1 -0.10096,0.1367285 2.2721571,2.2721571 0 0 1 -0.11078,0.128816 2.2721571,2.2721571 0 0 1 -0.12016,0.120165 2.2721571,2.2721571 0 0 1 -0.12882,0.1107754 2.2721571,2.2721571 0 0 1 -0.13673,0.1009639 2.2721571,2.2721571 0 0 1 -0.1324,0.083134 h -5.3e-4 a 2.2721571,2.2721571 0 0 1 -1.12463,-1.9605139 2.2721571,2.2721571 0 0 1 1.12495,-1.9607249 z"
         transform="matrix(0.76506174,0,0,0.76506174,388.94753,101.80943)" />
    </g>
  </g>
</svg>
