<svg width="42" height="42" viewBox="0 0 42 42" fill="none" xmlns="http://www.w3.org/2000/svg">
<path d="M42 20.9998C42 32.5977 32.598 41.9998 21 41.9998C9.40202 41.9998 0 32.5977 0 20.9998C0 9.40178 9.40202 -0.000244141 21 -0.000244141C32.598 -0.000244141 42 9.40178 42 20.9998Z" fill="#FF6500"/>
<path d="M24.6281 28.9975C25.2049 30.0489 25.7711 31.0672 25.8779 31.2553L26.0703 31.5984L25.4079 31.4324C25.0019 31.3328 24.2434 31.2553 23.5063 31.2553C22.1389 31.2553 21.092 31.4988 20.0343 32.0522L19.4574 32.351L19.9275 33.181C20.1839 33.6349 20.3976 34.0665 20.4082 34.1328C20.4082 34.31 18.8912 35.0072 17.8016 35.3282C16.7974 35.6381 15.291 35.8705 14.7462 35.8151C14.4258 35.782 14.3403 35.6713 13.1437 33.5352C12.4495 32.3068 11.8939 31.2996 11.9152 31.2996C11.9366 31.2996 12.2785 31.377 12.6844 31.4767C13.8276 31.7533 15.4513 31.7091 16.5944 31.355C17.3636 31.1225 18.2823 30.7462 18.464 30.5802C18.4853 30.558 18.2716 30.1375 18.0045 29.6395C17.7268 29.1525 17.5131 28.7319 17.5345 28.7098C17.6627 28.5881 18.9553 27.9683 19.5002 27.769C20.4403 27.4148 21.9573 27.1161 22.8119 27.105L23.5597 27.0939L24.6281 28.9975Z" fill="white"/>
<path d="M32.106 22.5783C31.8284 22.8994 31.4544 23.3753 31.2834 23.6409C30.5356 24.7586 29.916 26.6624 29.916 27.8355V28.4221H31.9565L31.8924 29.2189C31.7429 30.9011 31.3582 32.3842 30.6959 33.8119L30.3327 34.6198L25.2048 34.6198L25.6536 34.1439C26.2304 33.5352 26.9889 32.3288 27.3094 31.5099C27.6192 30.713 27.8862 29.4734 27.8862 28.7984V28.3114H26.8714C26.3798 28.3114 26.1089 28.3365 25.974 28.246C25.7864 28.12 25.8621 27.7701 25.974 26.8172C26.1236 25.5556 26.5081 24.1942 27.0317 23.0322L27.4483 22.1135L29.9908 22.0804C31.3903 22.0693 32.5547 22.0471 32.5654 22.025C32.5868 22.0139 32.3838 22.2685 32.106 22.5783Z" fill="white"/>
<path d="M8.58208 19.3687C8.73166 19.7118 9.04152 20.2873 9.27648 20.6416C9.73591 21.3388 11.0819 22.7111 11.6267 23.0322L11.958 23.2313L12.4493 22.3348C12.7271 21.8479 12.9835 21.4495 13.0262 21.4495C13.069 21.4495 13.4643 21.704 13.9023 22.025C14.9386 22.7776 16.1778 24.0835 16.8615 25.146C17.3742 25.9319 17.4063 26.0204 17.2674 26.2417C17.1819 26.3745 16.605 27.4038 15.9854 28.5216C15.3658 29.6395 14.8424 30.4917 14.8103 30.4031C14.5219 29.3849 14.0946 28.3777 13.6779 27.7248C13.1651 26.9168 11.8511 25.5334 11.2529 25.1792L10.9217 24.991L10.4303 25.8765C10.1526 26.3635 9.90679 26.7619 9.88549 26.7619C9.58634 26.7619 7.57793 25.0797 6.92622 24.3049C6.24252 23.4748 5.55882 22.4456 5.55882 22.2463C5.55882 22.0913 6.56308 20.232 7.67401 18.3063L8.04796 17.6533L8.18684 18.2067C8.26163 18.5055 8.4432 19.0367 8.58208 19.3687Z" fill="white"/>
<path d="M28.7409 13.8681C29.3926 15.008 30.3007 16.0152 31.4011 16.8009C31.6895 17.0113 31.7749 17.0224 31.8497 16.9006C31.8925 16.812 32.1167 16.4137 32.3411 16.0041C32.5655 15.5946 32.7792 15.2515 32.8111 15.2515C32.8539 15.2515 33.1851 15.4619 33.559 15.7163C34.4564 16.3361 35.7704 17.6421 36.422 18.5607C37.3194 19.8335 37.3622 19.5015 35.9413 22.0692L34.6914 24.338L34.4029 23.4747C33.965 22.1355 33.4842 21.2944 32.5869 20.2983C32.1274 19.7893 30.8027 18.7157 30.728 18.8042C30.7067 18.8264 30.525 19.1695 30.3113 19.5678C30.0977 19.9663 29.8734 20.3537 29.82 20.4422C29.5528 20.8739 26.7111 18.2951 25.7604 16.7789L25.301 16.0263L26.5617 13.7685L27.8222 11.4997L28.164 12.4625C28.3457 12.9937 28.6128 13.6246 28.7409 13.8681Z" fill="white"/>
<path d="M29.5208 8.41186C30.2045 9.64038 30.7494 10.6586 30.7387 10.6696C30.728 10.6807 30.4289 10.6254 30.0764 10.5369C29.1897 10.3155 27.3736 10.3155 26.4441 10.5369C25.6536 10.7361 24.2541 11.3448 24.2541 11.4998C24.2541 11.5551 24.4678 11.9757 24.7348 12.4405C25.0019 12.9053 25.2049 13.3038 25.1942 13.3148C25.1729 13.3258 24.9271 13.4697 24.6281 13.6247C23.2286 14.3441 21.092 14.9196 19.7566 14.9196H19.1477L17.9085 12.7171C17.2246 11.4998 16.6692 10.4815 16.6692 10.4483C16.6692 10.4261 16.9256 10.4704 17.2353 10.5589C18.1862 10.8246 19.404 10.8689 20.4724 10.6696C21.3803 10.5147 22.876 9.97238 23.111 9.72889C23.2072 9.6293 23.079 9.3415 22.4166 8.2016L22.203 7.83637L23.1004 7.3937C24.4892 6.68539 26.3266 6.20938 27.6833 6.18729L28.2709 6.17623L29.5208 8.41186Z" fill="white"/>
<path d="M14.8424 12.9826C14.9386 11.2119 15.7612 9.28611 17.0217 7.85841L17.449 7.39359L12.3959 7.39359L12.0221 8.16826C11.3277 9.59596 10.7935 11.743 10.7935 13.1155V13.5914L12.8541 13.5914C12.9168 12.9335 12.8554 13.5914 12.8554 13.5914H12.8541C12.8384 13.7565 12.8148 14.0043 12.7806 14.3661C12.6096 16.1702 11.8725 17.9299 10.8042 19.1473C10.4409 19.5458 10.1526 19.8999 10.1526 19.9221C10.1526 19.933 11.2956 19.9441 12.7058 19.9221L15.2483 19.8888L15.6971 18.9149C16.2739 17.6089 16.6585 16.1037 16.7439 14.7867L16.8081 13.7131L14.7997 13.6468L14.8424 12.9826Z" fill="white"/>
</svg>
