<svg width="118" height="39" viewBox="0 0 118 39" fill="none" xmlns="http://www.w3.org/2000/svg">
<path d="M44.3423 18.3521L46.4448 16.0479C46.8532 16.6136 47.3449 17.1006 47.8995 17.4891C49.0523 18.3175 50.4001 18.7607 51.7787 18.7645C52.4361 18.7788 53.0913 18.6754 53.7183 18.4584C54.2038 18.304 54.643 18.0105 54.9907 17.6081C55.2858 17.2426 55.4462 16.7697 55.4406 16.2817C55.4392 15.9474 55.356 15.6197 55.1998 15.3325C55.0435 15.0454 54.82 14.8095 54.5523 14.6492C53.9588 14.224 52.8998 13.9009 51.3752 13.6501C50.1268 13.4838 48.9043 13.1349 47.7405 12.6128C46.9241 12.2562 46.2129 11.6605 45.6845 10.891C45.2383 10.168 45.0091 9.31047 45.0289 8.43793C45.0135 7.39277 45.309 6.37053 45.8707 5.52575C46.4708 4.65104 47.2748 3.96962 48.1982 3.55312C49.2651 3.06455 50.4131 2.82423 51.5692 2.8474C52.9314 2.81975 54.2815 3.1308 55.5182 3.75719C56.6418 4.34062 57.641 5.17636 58.4509 6.21022L56.3716 8.48895C55.8068 7.67988 55.0948 7.00817 54.2808 6.51632C53.4578 6.02055 52.5315 5.76714 51.5925 5.78083C50.7345 5.74093 49.8843 5.97424 49.1447 6.45255C48.8566 6.63032 48.617 6.88913 48.4506 7.20226C48.2842 7.51539 48.1971 7.87151 48.1982 8.23386C48.1988 8.42222 48.2334 8.60858 48.3 8.78223C48.3665 8.95588 48.4638 9.11339 48.5861 9.24569C48.937 9.59618 49.3624 9.84467 49.8236 9.96842C50.5873 10.2072 51.3649 10.389 52.1511 10.5126C53.4109 10.693 54.642 11.0635 55.8092 11.6137C56.6525 12.0029 57.3833 12.6363 57.9233 13.446C58.396 14.2335 58.637 15.1609 58.6138 16.1031C58.6344 17.1748 58.3256 18.2229 57.7371 19.0791C57.1053 19.9614 56.2676 20.64 55.3126 21.0432C54.1731 21.5276 52.958 21.763 51.736 21.7362C50.2697 21.768 48.8143 21.4533 47.4689 20.8136C46.2838 20.2365 45.2196 19.3987 44.3423 18.3521Z" fill="#231F20"/>
<path d="M71.1393 21.3108H68.0942V13.9475C68.1491 13.1413 67.9262 12.3419 67.4696 11.707C67.2541 11.4567 66.9917 11.2606 66.7004 11.1321C66.4091 11.0037 66.0958 10.946 65.7822 10.963C65.2865 10.9635 64.8 11.1103 64.374 11.3881C63.8983 11.716 63.5217 12.1908 63.2918 12.7528C62.9865 13.5093 62.8445 14.3327 62.8767 15.1591V21.3108H59.8276V3.09375H62.8767V12.5318H62.4888C62.5672 11.5833 62.8664 10.6729 63.3577 9.88742C63.7505 9.29384 64.2884 8.83402 64.9094 8.56099C65.4718 8.3126 66.0719 8.18278 66.6783 8.17837C67.2835 8.14388 67.8886 8.25032 68.4536 8.49067C69.0186 8.73102 69.5307 9.09984 69.9562 9.57282C70.7553 10.4996 71.1549 11.8487 71.1549 13.6201L71.1393 21.3108Z" fill="#231F20"/>
<path d="M76.8613 21.7136C76.0498 21.7344 75.2446 21.5526 74.5066 21.1821C73.8649 20.8639 73.3169 20.356 72.9239 19.7154C72.5407 19.0683 72.3434 18.3101 72.3575 17.5387C72.3378 16.7263 72.5841 15.9331 73.0519 15.3025C73.5783 14.6382 74.2594 14.1431 75.0225 13.8698C75.978 13.516 76.9818 13.3449 77.9901 13.3639H80.9693V15.5406H78.2229C77.5264 15.507 76.8339 15.6726 76.2135 16.021C75.9772 16.1483 75.7788 16.3466 75.6415 16.5927C75.5041 16.8388 75.4334 17.1227 75.4376 17.4112C75.4286 17.6668 75.4773 17.9208 75.5795 18.1507C75.6817 18.3807 75.8342 18.5794 76.0234 18.7291C76.4784 19.0716 77.0237 19.2405 77.5751 19.2095C78.1452 19.2143 78.7081 19.0685 79.2159 18.7844C79.6961 18.5146 80.1079 18.1188 80.4146 17.6323C80.7232 17.1365 80.9065 16.56 80.9461 15.9615L81.8228 16.4164C81.8432 17.3807 81.6275 18.3334 81.1982 19.1755C80.7879 19.9665 80.1813 20.6137 79.4487 21.0418C78.6525 21.5035 77.7619 21.7347 76.8613 21.7136ZM83.5762 21.3097H80.8064V18.7589L80.6706 18.355V13.568C80.692 13.1805 80.6334 12.7927 80.4991 12.4335C80.3647 12.0743 80.1582 11.7529 79.8948 11.4933C79.2844 10.972 78.5223 10.7107 77.7496 10.7578C77.1175 10.7521 76.4912 10.8909 75.9107 11.1654C75.3303 11.4399 74.8085 11.8441 74.3786 12.3521L72.7843 10.3284C73.4223 9.63697 74.1845 9.09841 75.0225 8.74693C75.9355 8.36087 76.9069 8.16758 77.8854 8.17725C78.9081 8.15571 79.9234 8.37159 80.8646 8.8107C81.7029 9.18674 82.4142 9.8384 82.9006 10.6759C83.3869 11.5135 83.6243 12.4956 83.58 13.4872L83.5762 21.3097Z" fill="#231F20"/>
<path d="M92.0214 8.35742V11.3929H91.3969C90.7503 11.3762 90.1102 11.537 89.5349 11.8605C88.9958 12.1929 88.5646 12.7011 88.3013 13.3145C87.9741 14.1155 87.8201 14.9884 87.8513 15.8653V21.307H84.8022V8.58274H87.828V12.7108H87.4401C87.5134 11.7658 87.8117 10.8584 88.3052 10.0792C88.7029 9.48985 89.2392 9.02992 89.8568 8.74855C90.4091 8.49674 91.0005 8.36395 91.5986 8.35742H92.0214Z" fill="#231F20"/>
<path d="M96.2844 21.3108H93.2393V3.09375H96.2844V21.3108ZM105.594 21.3108H101.715L95.6172 14.7085H95.8461L101.277 8.58225H104.923L99.1279 14.9593V14.4534L105.594 21.3108Z" fill="#231F20"/>
<path d="M106.215 19.4165L107.876 17.3418C108.982 18.5273 110.464 19.1976 112.011 19.2124C112.601 19.244 113.187 19.0969 113.706 18.7873C113.889 18.6886 114.045 18.538 114.157 18.3511C114.269 18.1641 114.333 17.9477 114.342 17.7244C114.347 17.5188 114.296 17.3163 114.195 17.1428C114.094 16.9694 113.948 16.8329 113.776 16.7509C113.107 16.4585 112.402 16.2751 111.685 16.2067C109.994 15.9233 108.755 15.4882 107.969 14.9015C107.597 14.63 107.294 14.2583 107.09 13.8222C106.887 13.386 106.788 12.8999 106.805 12.4102C106.785 11.6206 107.001 10.8455 107.422 10.2038C107.89 9.54302 108.512 9.0321 109.222 8.7243C110.051 8.35858 110.939 8.17792 111.832 8.19288C112.878 8.17174 113.917 8.37838 114.889 8.80082C115.731 9.17435 116.503 9.7148 117.166 10.3951L115.502 12.4697C115.028 11.9381 114.469 11.5058 113.853 11.1943C113.229 10.8713 112.546 10.7057 111.856 10.7097C111.302 10.6847 110.753 10.8321 110.273 11.1348C110.101 11.23 109.955 11.3742 109.852 11.5522C109.748 11.7302 109.69 11.9355 109.683 12.1466C109.69 12.3306 109.75 12.5075 109.854 12.6524C109.957 12.7974 110.1 12.903 110.261 12.9544C110.917 13.2104 111.6 13.3718 112.294 13.4348C113.954 13.7182 115.201 14.166 116.034 14.7782C116.43 15.0682 116.752 15.4639 116.97 15.928C117.187 16.3921 117.294 16.9094 117.279 17.4311C117.292 18.2508 117.048 19.0507 116.588 19.697C116.09 20.3761 115.431 20.8922 114.684 21.1893C113.778 21.5526 112.819 21.7285 111.856 21.7079C110.767 21.723 109.685 21.5079 108.671 21.0745C107.765 20.694 106.933 20.1317 106.215 19.4165Z" fill="#231F20"/>
<path d="M49.7964 34.1806H48.5551L45.0871 26.2433H45.956V35.2264H44.3423V25.5078H46.2819L49.521 32.9689H48.8383L52.0813 25.5078H53.9937V35.2264H52.3528V26.2305H53.2605L49.7964 34.1806Z" fill="#231F20"/>
<path d="M63.7268 35.2258H61.923L59.0175 26.7826H59.514L56.6085 35.2216H54.8706L58.3619 25.4902H60.2122L63.7268 35.2258ZM61.9113 33.1002H56.6473V31.5399H61.9113V33.1002Z" fill="#231F20"/>
<path d="M66.2793 35.2256H64.6035V25.507H68.1995C68.7754 25.4923 69.3469 25.6202 69.8715 25.8811C70.3233 26.1105 70.7096 26.4706 70.9887 26.9227C71.256 27.3861 71.391 27.9264 71.3766 28.4744C71.3905 29.0251 71.2555 29.5679 70.9887 30.0347C70.7098 30.488 70.3236 30.8496 69.8715 31.0805C69.3472 31.3429 68.7757 31.4723 68.1995 31.4589H66.1513V29.8901H68.1995C68.5948 29.9155 68.9847 29.7792 69.2935 29.5075C69.4252 29.376 69.5284 29.2137 69.5955 29.0328C69.6627 28.8518 69.692 28.6567 69.6814 28.4617C69.6925 28.2685 69.6633 28.0751 69.5961 27.8961C69.5289 27.7171 69.4254 27.5573 69.2935 27.4286C68.9847 27.157 68.5948 27.0206 68.1995 27.046H66.2599L66.2793 35.2256ZM72.3037 35.2256H70.2516L67.1095 30.6937H69.0491L72.3037 35.2256Z" fill="#231F20"/>
<path d="M74.856 35.2264H73.1802V25.5078H74.856V35.2264ZM81.2993 35.2264H79.03L74.5457 30.1843H74.7435L78.7041 25.5078H80.7795L76.5434 30.3671V29.9887L81.2993 35.2264Z" fill="#231F20"/>
<path d="M88.4251 35.2264H82.1641V25.5078H88.4134V27.0596H83.8554V33.6747H88.4251V35.2264ZM88.1884 31.0771H83.7157V29.5253H88.1729L88.1884 31.0771Z" fill="#231F20"/>
<path d="M96.5408 27.0596H89.3022V25.5078H96.5408V27.0596ZM93.7594 35.2264H92.0836V26.9235H93.7594V35.2264Z" fill="#231F20"/>
<path d="M99.0972 35.2264H97.4175V25.5078H99.0972V35.2264Z" fill="#231F20"/>
<path d="M101.611 35.2264H99.9697V25.5078H101.735L106.642 33.4706H105.994V25.5078H107.635V35.2264H105.87L100.978 27.2509H101.611V35.2264Z" fill="#231F20"/>
<path d="M117.279 35.2254H115.727V33.8905L115.875 33.9585C115.588 34.4362 115.185 34.8162 114.711 35.0553C114.194 35.3206 113.629 35.453 113.058 35.4422C112.443 35.4499 111.831 35.3257 111.259 35.0766C110.717 34.8314 110.226 34.4684 109.815 34.0095C109.395 33.5489 109.068 32.9972 108.853 32.3897C108.62 31.7357 108.504 31.0385 108.512 30.3363C108.504 29.6412 108.624 28.9516 108.865 28.3084C109.093 27.7045 109.431 27.1578 109.858 26.7014C110.293 26.2421 110.805 25.881 111.367 25.6386C111.973 25.382 112.618 25.2536 113.268 25.2602C114.006 25.2499 114.736 25.4213 115.405 25.7619C116.008 26.0673 116.538 26.5195 116.957 27.084L115.851 28.3084C115.561 27.8785 115.184 27.5279 114.75 27.2838C114.288 27.0202 113.773 26.8872 113.252 26.897C112.709 26.8784 112.172 27.0256 111.701 27.3221C111.252 27.6187 110.884 28.0433 110.638 28.5508C110.373 29.099 110.24 29.7119 110.25 30.3321C110.24 30.9617 110.374 31.5841 110.638 32.1431C110.882 32.6559 111.251 33.0842 111.705 33.3803C112.174 33.6837 112.711 33.8396 113.256 33.8309C113.798 33.8356 114.332 33.6893 114.808 33.4058C115.25 33.1487 115.6 32.7351 115.801 32.2324L115.677 32.7638V31.3864H113.117V29.9027H117.24L117.279 35.2254Z" fill="#231F20"/>
<mask id="mask0_337_15445" style="mask-type:luminance" maskUnits="userSpaceOnUse" x="0" y="0" width="40" height="39">
<path d="M20.1263 0C16.3425 0 12.6437 1.12202 9.49757 3.22417C6.35147 5.32632 3.89939 8.31419 2.4514 11.8099C1.00341 15.3057 0.624546 19.1523 1.36273 22.8634C2.1009 26.5745 3.92297 29.9833 6.5985 32.6588C9.27404 35.3344 12.6829 37.1564 16.394 37.8946C20.105 38.6328 23.9517 38.2539 27.4474 36.8059C30.9432 35.3579 33.931 32.9059 36.0332 29.7598C38.1354 26.6137 39.2574 22.9149 39.2574 19.1311C39.2574 14.0572 37.2418 9.19115 33.654 5.60337C30.0662 2.01559 25.2001 0 20.1263 0ZM30.0022 28.9687C29.2003 29.9912 28.1731 30.8147 27.0007 31.375C25.994 31.8705 24.9218 32.2198 23.8164 32.4123C22.9757 32.5739 22.1217 32.6565 21.2656 32.6589C20.7385 32.6589 20.2155 32.6589 19.6926 32.6334C18.9424 32.5861 18.1956 32.4938 17.4564 32.3571C16.3376 32.1548 15.2371 31.8619 14.1658 31.4813C12.7799 31.0015 11.4601 30.3487 10.2376 29.5384C9.71347 29.1926 9.22752 28.7921 8.78787 28.3438L8.64758 28.2205L9.196 27.5828C9.89323 26.775 10.5905 25.9673 11.2919 25.168C11.6638 24.7068 12.0765 24.2799 12.5248 23.8926C12.9575 23.5374 13.4806 23.3094 14.0354 23.2344C14.5902 23.1593 15.155 23.24 15.6666 23.4675C16.3523 23.7519 16.9538 24.207 17.4139 24.7897C17.9533 25.4357 18.384 26.1651 18.6893 26.9493C18.9294 27.5596 19.2715 28.1246 19.7011 28.6201C20.0293 29.0091 20.4783 29.277 20.9765 29.3811C21.1673 29.4322 21.3682 29.4322 21.559 29.3811C21.6173 29.3546 21.6741 29.3248 21.729 29.2918C21.5433 28.9241 21.4472 28.5177 21.4484 28.1057C21.4399 27.9726 21.4399 27.8392 21.4484 27.7061C21.4607 27.1651 21.4108 26.6244 21.2996 26.0948C21.2498 25.9256 21.2659 25.7438 21.3448 25.586C21.4237 25.4282 21.5595 25.3062 21.7248 25.2445C22.2052 25.015 22.6941 24.8194 23.1787 24.5856C24.131 24.1605 25.1131 23.8118 26.0909 23.4505C26.3111 23.3683 26.5268 23.2746 26.7371 23.1699C26.8251 23.111 26.9039 23.0393 26.9709 22.9573C27.056 22.8765 27.0517 22.8128 26.9709 22.732C26.9189 22.6848 26.8619 22.6435 26.8009 22.6087C25.9586 22.1309 25.0137 21.8626 24.046 21.8265C23.5443 21.8265 23.0427 21.7967 22.541 21.7967C21.6908 21.7967 20.8405 21.8477 19.9902 21.8265C18.19 21.7757 16.4109 21.4236 14.727 20.7849C13.9446 20.5008 13.2049 20.1102 12.5291 19.6243C11.0942 18.6082 10.0703 17.1122 9.6424 15.4069C9.47131 14.7454 9.40531 14.0611 9.44683 13.379C9.52797 11.8475 10.0987 10.3826 11.0751 9.19993C12.0425 8.02642 13.2979 7.12405 14.7185 6.5811C15.7251 6.18298 16.7778 5.91302 17.8518 5.77759C18.4427 5.69682 19.0337 5.65855 19.6288 5.62454C20.3105 5.59617 20.9932 5.60611 21.6738 5.6543C23.174 5.71813 24.6573 5.99732 26.0782 6.48332C27.3939 6.93184 28.6169 7.61612 29.6876 8.50271C29.7641 8.56648 29.8321 8.63025 29.9256 8.71953C29.8894 8.73682 29.8507 8.7483 29.8109 8.75354C28.7377 8.84898 27.7007 9.18931 26.7796 9.74836C26.2128 10.07 25.6776 10.4444 25.1811 10.8665C24.9864 11.0406 24.7323 11.1334 24.4711 11.1258C24.1821 11.1258 23.893 11.0833 23.6209 11.0578C23.4041 11.0365 23.1957 11.0025 22.9662 10.9898C21.9349 10.9125 20.9 10.8969 19.8669 10.943C18.8478 10.9842 17.8352 11.1266 16.8442 11.3681C16.4457 11.4581 16.0611 11.6011 15.7006 11.7933C15.571 11.8645 15.4498 11.9501 15.3392 12.0483C15.2819 12.091 15.2336 12.1447 15.1972 12.2062C15.1608 12.2677 15.1369 12.3358 15.1271 12.4066C15.1172 12.4774 15.1214 12.5495 15.1396 12.6186C15.1578 12.6877 15.1895 12.7526 15.2329 12.8093C15.4849 13.2269 15.8225 13.5862 16.2235 13.8637C16.5124 14.0633 16.8234 14.2288 17.1503 14.3568C17.1899 14.3723 17.226 14.3954 17.2566 14.4248C16.9543 14.3805 16.6647 14.2733 16.4063 14.1102C16.4401 14.2258 16.5065 14.3291 16.5976 14.4078C16.842 14.6441 17.1311 14.8291 17.4479 14.952C17.9657 15.1544 18.4988 15.315 19.0422 15.4324C19.5608 15.5642 20.0922 15.6195 20.6152 15.7045C21.4383 15.8284 22.1825 16.2637 22.6941 16.9204C23.0089 17.333 23.373 17.7056 23.7782 18.03C24.0496 18.2685 24.3774 18.4338 24.7305 18.5104C24.8459 18.5295 24.9637 18.5295 25.0791 18.5104C25.1896 18.5104 25.2236 18.4339 25.2024 18.3233C25.1878 18.2463 25.162 18.1718 25.1259 18.1023C25.0366 17.928 24.9388 17.7579 24.858 17.5794C24.8043 17.4581 24.7644 17.3312 24.739 17.201C24.7229 17.1052 24.745 17.007 24.8007 16.9275C24.8564 16.8479 24.9411 16.7935 25.0366 16.7758C25.2361 16.7238 25.4468 16.7341 25.6403 16.8056C26.0229 16.9374 26.4098 17.0777 26.7796 17.2307C27.6493 17.6127 28.4551 18.126 29.1689 18.7527C29.6993 19.2448 30.1472 19.819 30.4953 20.4533C30.9743 21.2752 31.2958 22.1791 31.4434 23.1189C31.6265 24.1405 31.5928 25.1892 31.3445 26.197C31.0962 27.2048 30.6389 28.1491 30.0022 28.9687ZM18.9274 13.5278C18.9274 13.6071 18.8962 13.6833 18.8405 13.7398C18.7848 13.7962 18.7091 13.8285 18.6298 13.8297C18.5497 13.8297 18.4729 13.7979 18.4163 13.7413C18.3597 13.6846 18.3279 13.6079 18.3279 13.5278C18.3279 13.4478 18.3597 13.371 18.4163 13.3144C18.4729 13.2578 18.5497 13.226 18.6298 13.226C18.7077 13.2311 18.7811 13.2646 18.836 13.3203C18.8909 13.3759 18.9234 13.4498 18.9274 13.5278Z" fill="white"/>
</mask>
<g mask="url(#mask0_337_15445)">
<path d="M-0.135254 15.0625C-0.135254 6.22595 7.02819 -0.9375 15.8647 -0.9375H24.5448C33.3814 -0.9375 40.5448 6.22595 40.5448 15.0625V23.7426C40.5448 32.5791 33.3814 39.7426 24.5448 39.7426H15.8647C7.02819 39.7426 -0.135254 32.5791 -0.135254 23.7426V15.0625Z" fill="#1977F2" style="mix-blend-mode:multiply"/>
</g>
</svg>
